<?xml version="1.0" standalone="no"?>
<!DOCTYPE svg PUBLIC "-//W3C//DTD SVG 20010904//EN"
 "http://www.w3.org/TR/2001/REC-SVG-20010904/DTD/svg10.dtd">
<svg version="1.0" xmlns="http://www.w3.org/2000/svg"
 width="128.000000pt" height="128.000000pt" viewBox="0 0 128.000000 128.000000"
 preserveAspectRatio="xMidYMid meet">
<metadata>
Created by potrace 1.11, written by Peter Selinger 2001-2013
</metadata>
<g transform="translate(0.000000,128.000000) scale(0.100000,-0.100000)"
fill="#000000" stroke="none">
<path d="M275 1272 c-3 -3 -5 -14 -5 -24 0 -10 -6 -18 -12 -19 -7 0 -58 -1
-113 -2 l-100 -2 -3 -32 -3 -33 115 0 c96 0 116 -3 116 -15 0 -12 -17 -15 -95
-15 l-95 0 2 -30 2 -30 93 0 c86 0 93 -1 93 -20 0 -19 -7 -20 -131 -20 l-130
0 3 -32 3 -33 83 0 c45 0 82 -3 82 -7 0 -11 -61 -54 -118 -83 -44 -22 -51 -28
-40 -38 8 -7 21 -20 30 -29 14 -16 18 -15 60 7 l45 24 37 -38 37 -38 -38 -11
c-21 -6 -67 -16 -103 -23 -36 -6 -67 -13 -69 -15 -2 -2 3 -17 10 -34 14 -31
15 -32 67 -26 30 4 90 18 134 33 79 26 80 26 128 9 62 -22 158 -45 191 -46 25
0 54 28 61 60 3 13 -1 14 -72 23 -25 3 -66 11 -91 17 l-45 11 58 60 c32 33 58
65 58 71 0 28 -36 37 -144 38 -103 0 -108 1 -93 18 14 15 35 17 171 16 l156 0
0 33 0 33 -130 0 c-123 0 -130 1 -130 20 0 19 7 20 95 20 l95 0 0 30 0 30 -95
0 c-78 0 -95 3 -95 15 0 12 20 15 116 15 l115 0 -3 33 -3 32 -105 1 c-130 2
-120 0 -120 24 0 11 -6 20 -12 21 -7 0 -23 2 -36 3 -12 2 -24 0 -27 -2z m115
-414 c0 -13 -73 -57 -84 -51 -30 17 -66 45 -66 51 0 4 34 7 75 7 41 0 75 -3
75 -7z"/>
<path d="M720 1240 l-21 -29 28 -17 c15 -9 46 -28 67 -42 38 -24 40 -24 53 -6
35 47 35 50 -20 80 -83 46 -84 46 -107 14z"/>
<path d="M1030 1159 l0 -110 -67 1 c-115 3 -111 5 -108 -37 l2 -38 87 -3 87
-3 -3 -212 -3 -212 -65 -5 -65 -5 0 -35 0 -35 65 -5 65 -5 1 -33 c0 -18 -4
-36 -9 -39 -6 -3 -39 -5 -74 -4 l-63 2 0 -40 0 -41 60 0 c33 0 60 -4 60 -8 0
-27 -81 -127 -140 -173 l-33 -27 24 -30 c13 -17 29 -31 36 -31 6 -1 38 28 71
64 33 36 61 65 63 65 3 0 4 -35 4 -78 l0 -77 43 -3 42 -3 0 88 0 88 30 -45
c64 -99 76 -105 114 -54 l18 26 -40 41 c-22 23 -54 68 -72 100 l-32 57 66 0
66 0 0 40 0 40 -75 0 -75 0 0 40 0 39 67 3 68 3 0 35 0 35 -67 3 -68 3 0 42
c0 24 -6 49 -12 56 -10 11 -10 13 0 7 15 -9 14 -17 16 167 l1 152 83 3 82 3 0
39 c0 45 4 43 -101 41 -38 -1 -58 3 -61 11 -2 7 -4 57 -3 111 l1 97 -43 0 -43
0 0 -111z"/>
<path d="M680 1058 c-12 -16 -20 -31 -18 -32 1 -2 31 -18 66 -37 l63 -34 19
25 c11 14 20 30 20 35 0 6 -29 25 -64 42 l-63 32 -23 -31z"/>
<path d="M800 902 c0 -5 -25 -51 -56 -102 l-57 -94 29 -23 c43 -34 35 -41 121
115 l35 64 -23 24 c-22 24 -49 32 -49 16z"/>
<path d="M660 332 c0 -239 1 -260 18 -264 32 -8 59 6 57 29 -2 25 -2 25 68 27
26 0 51 6 55 13 4 6 7 109 7 230 l0 218 -103 3 -102 3 0 -259z m130 123 c0
-57 -2 -61 -24 -63 -13 -1 -26 4 -28 11 -3 10 -3 87 1 107 1 3 12 5 26 5 24 0
25 -3 25 -60z m0 -196 c0 -60 0 -60 -27 -57 -27 3 -28 5 -28 61 -1 56 0 57 27
57 28 0 28 -1 28 -61z"/>
<path d="M50 572 c-6 -2 -10 -21 -10 -43 l0 -39 253 0 253 0 1 40 1 40 -77 0
c-42 1 -151 2 -244 3 -92 1 -172 1 -177 -1z"/>
<path d="M91 350 c-4 -3 -7 -21 -6 -40 l0 -35 203 -3 202 -2 0 42 0 43 -196 0
c-108 0 -199 -2 -203 -5z"/>
<path d="M2 83 l1 -43 289 0 289 0 -3 43 -3 42 -287 0 -287 0 1 -42z"/>
</g>
</svg>
